<svg width="32" height="32" viewBox="0 0 32 32" fill="none" xmlns="http://www.w3.org/2000/svg">
<path d="M24 24.9444C23.3109 21.8333 20.7143 20 16.0001 20C11.2861 20 8.68901 21.8333 8 24.9444M16 28C22.6275 28 28 22.6275 28 16C28 9.37259 22.6275 4 16 4C9.37259 4 4 9.37259 4 16C4 22.6275 9.37259 28 16 28ZM16 16C17.7777 16 18.6667 15.0476 18.6667 12.6667C18.6667 10.2857 17.7777 9.33333 16 9.33333C14.2223 9.33333 13.3333 10.2857 13.3333 12.6667C13.3333 15.0476 14.2223 16 16 16Z" stroke="#507C5C" stroke-width="2.66667" stroke-linecap="round" stroke-linejoin="round"/>
</svg>
