<svg width="32" height="32" viewBox="0 0 32 32" fill="none" xmlns="http://www.w3.org/2000/svg">
<path d="M25.3556 9.52254C26.1681 10.0022 26.6667 10.8754 26.6667 11.819V24.0001C26.6667 25.4729 25.4728 26.6668 24 26.6668H21.3333C19.8605 26.6668 18.6667 25.4729 18.6667 24.0001V18.6667C18.6667 17.194 17.4728 16 16 16C14.5272 16 13.3333 17.194 13.3333 18.6667V24.0001C13.3333 25.4729 12.1394 26.6668 10.6667 26.6668H8.00001C6.52725 26.6668 5.33334 25.4729 5.33334 24.0001V11.819C5.33334 10.8754 5.83194 10.0022 6.64448 9.52254L14.6444 4.80031C15.4808 4.30667 16.5192 4.30667 17.3556 4.80031L25.3556 9.52254Z" stroke="#CDCDCD" stroke-width="2.66667" stroke-linecap="round" stroke-linejoin="round"/>
</svg>
