<svg width="36" height="36" viewBox="0 0 36 36" fill="none" xmlns="http://www.w3.org/2000/svg">
<path d="M18.059 7.967C16.832 7.967 15.6775 8.445 14.81 9.3125C13.019 11.1035 13.019 14.0175 14.81 15.8085C15.6785 16.676 16.8325 17.154 18.06 17.154C19.2865 17.154 20.441 16.676 21.308 15.8085C23.099 14.0175 23.099 11.1035 21.308 9.3125C20.441 8.445 19.2865 7.967 18.059 7.967ZM19.894 14.3945C19.4045 14.8845 18.7525 15.1545 18.06 15.1545C17.367 15.1545 16.715 14.884 16.2245 14.3945C15.2135 13.383 15.2135 11.7375 16.2245 10.7265C16.715 10.236 17.3665 9.9665 18.059 9.9665C18.7525 9.9665 19.404 10.236 19.894 10.7265C20.9045 11.738 20.9045 13.3835 19.894 14.3945Z" fill="#507C5C"/>
<path d="M25.16 10.9115C25.125 10.761 25.1015 10.6515 25.083 10.5675C25.045 10.39 25.0215 10.2825 24.959 10.137C24.85 9.88349 24.5545 9.76899 24.302 9.87549C24.05 9.98449 23.932 10.2785 24.041 10.5325C24.0645 10.586 24.0735 10.624 24.1065 10.7775C24.125 10.867 24.1505 10.983 24.1875 11.142C24.2425 11.3725 24.448 11.5275 24.6745 11.5275C24.712 11.5275 24.751 11.523 24.789 11.5135C25.0575 11.4495 25.2235 11.18 25.16 10.9115Z" fill="#507C5C"/>
<path d="M24.191 8.60849C22.998 6.72799 21.05 5.47699 18.846 5.17599C18.5705 5.13949 18.3205 5.32999 18.2825 5.60399C18.2445 5.87749 18.4365 6.12949 18.7105 6.16699C20.6215 6.42699 22.311 7.51249 23.346 9.14449C23.441 9.29449 23.6035 9.37649 23.7695 9.37649C23.862 9.37649 23.9525 9.35149 24.037 9.29899C24.269 9.15099 24.3385 8.84199 24.191 8.60849Z" fill="#507C5C"/>
<path d="M18.0005 1.631C12.08 1.631 7.26349 6.4475 7.26349 12.3675C7.26349 16.2305 12.8325 28.496 14.3285 31.4445C15.6195 33.9895 17.2135 34.3695 18.0495 34.3695C19.4975 34.3695 20.816 33.3295 21.7635 31.4405C23.1825 28.611 28.737 16.188 28.737 12.368C28.7375 6.4475 23.9205 1.631 18.0005 1.631ZM19.9755 30.544C19.403 31.6865 18.6825 32.369 18.0495 32.369C17.4075 32.369 16.702 31.702 16.112 30.539C14.1245 26.622 9.26349 15.403 9.26349 12.368C9.26349 7.5505 13.183 3.6315 18.0005 3.6315C22.8185 3.6315 26.7375 7.5505 26.7375 12.368C26.7375 15.449 21.714 27.079 19.9755 30.544Z" fill="#507C5C"/>
</svg>
