<svg width="40" height="40" viewBox="0 0 40 40" fill="none" xmlns="http://www.w3.org/2000/svg">
<g clip-path="url(#clip0_15_247)">
<path d="M20 40C31.0457 40 40 31.0457 40 20C40 8.95431 31.0457 0 20 0C8.95431 0 0 8.95431 0 20C0 31.0457 8.95431 40 20 40Z" fill="#FF7058"/>
<path d="M17.1653 11.4961L17.8897 9.44882H22.1102L22.8346 11.4961H24.1575L23.1496 8.59843C23.0551 8.34646 22.8346 8.18898 22.5512 8.18898H17.4488C17.1968 8.18898 16.9449 8.34646 16.8504 8.59843L15.8425 11.4961H17.1653Z" fill="#324A5E"/>
<path d="M24.9449 34.2677H15.0551C13.8898 34.2677 12.9449 33.3858 12.8189 32.252L11.0551 13.7008H28.9449L27.1811 32.2205C27.0551 33.3858 26.1102 34.2677 24.9449 34.2677Z" fill="#E6E9EE"/>
<path d="M29.1024 13.7008H10.8976C10.1417 13.7008 9.51181 13.0709 9.51181 12.315C9.51181 11.5591 10.1417 10.9291 10.8976 10.9291H29.1024C29.8583 10.9291 30.4882 11.5591 30.4882 12.315C30.4882 13.1024 29.8583 13.7008 29.1024 13.7008Z" fill="white"/>
<path d="M17.7953 20.189L19.1181 20.7874C19.2441 20.8504 19.4016 20.7874 19.4646 20.6614L20 19.6535L21.1968 21.8583L21.2598 21.9842L20.6929 22.2992C20.4724 22.4252 20.5354 22.7402 20.7559 22.8031L22.8976 23.3701C23.0551 23.4016 23.2126 23.3071 23.2441 23.1811L23.811 21.0394C23.874 20.7874 23.622 20.5984 23.4016 20.7244L22.9921 20.9764L21.1653 17.5748H19.0866C18.9921 17.5748 18.8976 17.6378 18.8346 17.7323L17.7008 19.811C17.5748 19.937 17.6378 20.126 17.7953 20.189Z" fill="#324A5E"/>
<path d="M24.3465 23.5591C24.2835 23.4331 24.0945 23.3701 23.9685 23.4646L22.7402 24.189C22.6142 24.252 22.5512 24.4409 22.6457 24.5669L23.1181 25.4488H21.1024V24.8819C21.1024 24.6299 20.8189 24.5039 20.6299 24.6929L19.0551 26.2362C18.9606 26.3307 18.9606 26.5197 19.0551 26.6142L20.6299 28.189C20.8189 28.3779 21.1024 28.252 21.1024 28V27.4331H24.0315C24.126 27.4331 24.2205 27.3701 24.2835 27.3071L25.3858 25.4803L24.3465 23.5591Z" fill="#324A5E"/>
<path d="M18.9606 23.4016L18.2047 21.3228C18.1417 21.1653 17.9842 21.1024 17.8583 21.1653L15.7795 21.9212C15.559 22.0157 15.5276 22.3307 15.748 22.4252L16.126 22.5827L14.6772 25.2598C14.6457 25.3543 14.6457 25.4488 14.6772 25.5433L15.7795 27.3701H18.1102C18.2677 27.3701 18.3937 27.2441 18.3937 27.0866V25.6693C18.3937 25.5118 18.2677 25.3858 18.1102 25.3858H16.8504L17.9213 23.3701L18.5827 23.685C18.8346 23.8425 19.0551 23.622 18.9606 23.4016Z" fill="#324A5E"/>
</g>
<defs>
<clipPath id="clip0_15_247">
<rect width="40" height="40" fill="white"/>
</clipPath>
</defs>
</svg>
