<svg width="36" height="36" viewBox="0 0 36 36" fill="none" xmlns="http://www.w3.org/2000/svg">
<path d="M30.25 10.5H16.75C14.4065 10.5 12.5 8.5935 12.5 6.25C12.5 3.9065 14.4065 2 16.75 2H30.25C32.5935 2 34.5 3.9065 34.5 6.25C34.5 8.5935 32.5935 10.5 30.25 10.5ZM16.75 4C15.5095 4 14.5 5.0095 14.5 6.25C14.5 7.4905 15.5095 8.5 16.75 8.5H30.25C31.4905 8.5 32.5 7.4905 32.5 6.25C32.5 5.0095 31.4905 4 30.25 4H16.75Z" fill="#507C5C"/>
<path d="M30.25 34H16.75C14.4065 34 12.5 32.0935 12.5 29.75C12.5 27.4065 14.4065 25.5 16.75 25.5H30.25C32.5935 25.5 34.5 27.4065 34.5 29.75C34.5 32.0935 32.5935 34 30.25 34ZM16.75 27.5C15.5095 27.5 14.5 28.5095 14.5 29.75C14.5 30.9905 15.5095 32 16.75 32H30.25C31.4905 32 32.5 30.9905 32.5 29.75C32.5 28.5095 31.4905 27.5 30.25 27.5H16.75Z" fill="#507C5C"/>
<path d="M30.25 22.5H16.75C14.4065 22.5 12.5 20.5935 12.5 18.25C12.5 15.9065 14.4065 14 16.75 14H30.25C32.5935 14 34.5 15.9065 34.5 18.25C34.5 20.5935 32.5935 22.5 30.25 22.5ZM16.75 16C15.5095 16 14.5 17.0095 14.5 18.25C14.5 19.4905 15.5095 20.5 16.75 20.5H30.25C31.4905 20.5 32.5 19.4905 32.5 18.25C32.5 17.0095 31.4905 16 30.25 16H16.75Z" fill="#507C5C"/>
<path d="M6.25 10.5H5.75C3.4065 10.5 1.5 8.5935 1.5 6.25C1.5 3.9065 3.4065 2 5.75 2H6.25C8.5935 2 10.5 3.9065 10.5 6.25C10.5 8.5935 8.5935 10.5 6.25 10.5ZM5.75 4C4.5095 4 3.5 5.0095 3.5 6.25C3.5 7.4905 4.5095 8.5 5.75 8.5H6.25C7.4905 8.5 8.5 7.4905 8.5 6.25C8.5 5.0095 7.4905 4 6.25 4H5.75Z" fill="#507C5C"/>
<path d="M6.25 34H5.75C3.4065 34 1.5 32.0935 1.5 29.75C1.5 27.4065 3.4065 25.5 5.75 25.5H6.25C8.5935 25.5 10.5 27.4065 10.5 29.75C10.5 32.0935 8.5935 34 6.25 34ZM5.75 27.5C4.5095 27.5 3.5 28.5095 3.5 29.75C3.5 30.9905 4.5095 32 5.75 32H6.25C7.4905 32 8.5 30.9905 8.5 29.75C8.5 28.5095 7.4905 27.5 6.25 27.5H5.75Z" fill="#507C5C"/>
<path d="M6.25 22.5H5.75C3.4065 22.5 1.5 20.5935 1.5 18.25C1.5 15.9065 3.4065 14 5.75 14H6.25C8.5935 14 10.5 15.9065 10.5 18.25C10.5 20.5935 8.5935 22.5 6.25 22.5ZM5.75 16C4.5095 16 3.5 17.0095 3.5 18.25C3.5 19.4905 4.5095 20.5 5.75 20.5H6.25C7.4905 20.5 8.5 19.4905 8.5 18.25C8.5 17.0095 7.4905 16 6.25 16H5.75Z" fill="#507C5C"/>
</svg>
