<svg width="36" height="36" viewBox="0 0 36 36" fill="none" xmlns="http://www.w3.org/2000/svg">
<path d="M7.622 29.0315C6.538 29.0315 5.75 28.141 5.75 27.047V18.55C5.75 18.2735 5.526 18.05 5.25 18.05C4.9735 18.05 4.75 18.2735 4.75 18.55V27.047C4.75 28.6925 5.9865 30.0315 7.622 30.0315C7.898 30.0315 8.122 29.8085 8.122 29.5315C8.122 29.255 7.898 29.0315 7.622 29.0315Z" fill="#507C5C"/>
<path d="M10.062 29.05H9.56198C9.28598 29.05 9.06198 29.2735 9.06198 29.55C9.06198 29.8265 9.28598 30.05 9.56198 30.05H10.062C10.3385 30.05 10.562 29.8265 10.562 29.55C10.562 29.2735 10.3385 29.05 10.062 29.05Z" fill="#507C5C"/>
<path d="M31.284 17.05H29.2505V12.4785C29.2505 10.5885 27.508 9.0505 25.5965 9.0505H24.146C23.758 5.347 20.617 2.45 16.8125 2.45C13.0075 2.45 9.867 5.347 9.4785 9.0505H4.528C2.6165 9.0505 1.25 10.5885 1.25 12.4785V30.047C1.25 31.9785 2.617 33.55 4.528 33.55H25.5965C27.5075 33.55 29.25 31.9785 29.2505 30.047V26.05H31.284C33.198 26.05 34.75 24.498 34.75 22.584L34.7505 20.5155C34.7505 18.6015 33.198 17.05 31.284 17.05ZM16.8125 4.45C19.5125 4.45 21.7475 6.4535 22.125 9.0505H11.4995C11.8765 6.4535 14.1115 4.45 16.8125 4.45ZM27.2505 30.047C27.2505 30.8615 26.3915 31.55 25.5965 31.55H4.528C3.7335 31.55 3.25 30.8615 3.25 30.047V12.478C3.25 11.6775 3.706 11.05 4.528 11.05H25.5965C26.419 11.05 27.2505 11.677 27.2505 12.478V17.05H24.216C22.302 17.05 20.75 18.6015 20.75 20.5155V22.584C20.75 24.498 22.302 26.05 24.216 26.05H27.2505V30.047ZM32.7505 22.584C32.7505 23.3935 32.094 24.05 31.284 24.05H24.216C23.4065 24.05 22.75 23.3935 22.75 22.584V20.5155C22.75 19.706 23.4065 19.0495 24.216 19.0495H31.2845C32.094 19.0495 32.7505 19.706 32.7505 20.5155V22.584Z" fill="#507C5C"/>
<path d="M25.271 22.4705C25.8004 22.4705 26.2295 22.0414 26.2295 21.512C26.2295 20.9826 25.8004 20.5535 25.271 20.5535C24.7416 20.5535 24.3125 20.9826 24.3125 21.512C24.3125 22.0414 24.7416 22.4705 25.271 22.4705Z" fill="#507C5C"/>
</svg>
